REM DIRINDEX 1\2,1\3,1\4,1\5\6,1\5\7,1\8
REM DIRNAME folder01,folder02,folder03,folder04,folder05,folder06,folder07,folder08
TITLE ""
FILE "046 Åy046ÅzUnit3 (0517 migration_0528 inmate).mp3" MP3
  TRACK 01 AUDIO
    TITLE "0:"
    INDEX 01 00:00:00
  TRACK 02 AUDIO
    TITLE "2:cjc115_1780"
    INDEX 01 00:00:07
  TRACK 03 AUDIO
    TITLE "0:"
    INDEX 01 00:01:38
  TRACK 04 AUDIO
    TITLE "3:cjc115_1781"
    INDEX 01 00:01:48
  TRACK 05 AUDIO
    TITLE "0:"
    INDEX 01 00:03:35
  TRACK 06 AUDIO
    TITLE "4:cjc115_1782"
    INDEX 01 00:03:47
  TRACK 07 AUDIO
    TITLE "0:"
    INDEX 01 00:08:11
  TRACK 08 AUDIO
    TITLE "2:cjc115_1783"
    INDEX 01 00:09:20
  TRACK 09 AUDIO
    TITLE "0:"
    INDEX 01 00:10:51
  TRACK 10 AUDIO
    TITLE "3:cjc115_1784"
    INDEX 01 00:10:57
  TRACK 11 AUDIO
    TITLE "0:"
    INDEX 01 00:12:16
  TRACK 12 AUDIO
    TITLE "4:cjc115_1785"
    INDEX 01 00:12:32
  TRACK 13 AUDIO
    TITLE "0:"
    INDEX 01 00:16:28
  TRACK 14 AUDIO
    TITLE "2:cjc115_1786"
    INDEX 01 00:17:39
  TRACK 15 AUDIO
    TITLE "0:"
    INDEX 01 00:18:58
  TRACK 16 AUDIO
    TITLE "3:cjc115_1787"
    INDEX 01 00:18:60
  TRACK 17 AUDIO
    TITLE "0:"
    INDEX 01 00:21:27
  TRACK 18 AUDIO
    TITLE "4:cjc115_1788"
    INDEX 01 00:21:37
  TRACK 19 AUDIO
    TITLE "0:"
    INDEX 01 00:25:66
  TRACK 20 AUDIO
    TITLE "2:cjc115_1789"
    INDEX 01 00:27:00
  TRACK 21 AUDIO
    TITLE "0:"
    INDEX 01 00:28:47
  TRACK 22 AUDIO
    TITLE "3:cjc115_1790"
    INDEX 01 00:28:57
  TRACK 23 AUDIO
    TITLE "0:"
    INDEX 01 00:30:36
  TRACK 24 AUDIO
    TITLE "4:cjc115_1791"
    INDEX 01 00:30:46
  TRACK 25 AUDIO
    TITLE "0:"
    INDEX 01 00:35:06
  TRACK 26 AUDIO
    TITLE "2:cjc115_1792"
    INDEX 01 00:36:17
  TRACK 27 AUDIO
    TITLE "0:"
    INDEX 01 00:37:32
  TRACK 28 AUDIO
    TITLE "3:cjc115_1793"
    INDEX 01 00:37:40
  TRACK 29 AUDIO
    TITLE "0:"
    INDEX 01 00:39:68
  TRACK 30 AUDIO
    TITLE "4:cjc115_1794"
    INDEX 01 00:39:74
  TRACK 31 AUDIO
    TITLE "0:"
    INDEX 01 00:45:08
  TRACK 32 AUDIO
    TITLE "2:cjc115_1795"
    INDEX 01 00:46:19
  TRACK 33 AUDIO
    TITLE "0:"
    INDEX 01 00:47:62
  TRACK 34 AUDIO
    TITLE "3:cjc115_1796"
    INDEX 01 00:47:72
  TRACK 35 AUDIO
    TITLE "0:"
    INDEX 01 00:49:06
  TRACK 36 AUDIO
    TITLE "4:cjc115_1797"
    INDEX 01 00:49:14
  TRACK 37 AUDIO
    TITLE "0:"
    INDEX 01 00:51:65
  TRACK 38 AUDIO
    TITLE "2:cjc115_1798"
    INDEX 01 00:53:00
  TRACK 39 AUDIO
    TITLE "0:"
    INDEX 01 00:54:23
  TRACK 40 AUDIO
    TITLE "3:cjc115_1799"
    INDEX 01 00:54:34
  TRACK 41 AUDIO
    TITLE "0:"
    INDEX 01 00:56:04
  TRACK 42 AUDIO
    TITLE "4:cjc115_1800"
    INDEX 01 00:56:14
  TRACK 43 AUDIO
    TITLE "0:"
    INDEX 01 01:00:55
  TRACK 44 AUDIO
    TITLE "2:cjc115_1801"
    INDEX 01 01:01:66
  TRACK 45 AUDIO
    TITLE "0:"
    INDEX 01 01:03:31
  TRACK 46 AUDIO
    TITLE "3:cjc115_1802"
    INDEX 01 01:03:39
  TRACK 47 AUDIO
    TITLE "0:"
    INDEX 01 01:04:43
  TRACK 48 AUDIO
    TITLE "4:cjc115_1803"
    INDEX 01 01:04:52
  TRACK 49 AUDIO
    TITLE "0:"
    INDEX 01 01:08:03
  TRACK 50 AUDIO
    TITLE "2:cjc115_1804"
    INDEX 01 01:09:10
  TRACK 51 AUDIO
    TITLE "0:"
    INDEX 01 01:10:39
  TRACK 52 AUDIO
    TITLE "3:cjc115_1805"
    INDEX 01 01:10:49
  TRACK 53 AUDIO
    TITLE "0:"
    INDEX 01 01:12:71
  TRACK 54 AUDIO
    TITLE "4:cjc115_1806"
    INDEX 01 01:13:04
  TRACK 55 AUDIO
    TITLE "0:"
    INDEX 01 01:15:46
  TRACK 56 AUDIO
    TITLE "2:cjc115_1807"
    INDEX 01 01:16:54
  TRACK 57 AUDIO
    TITLE "0:"
    INDEX 01 01:17:69
  TRACK 58 AUDIO
    TITLE "3:cjc115_1808"
    INDEX 01 01:18:06
  TRACK 59 AUDIO
    TITLE "0:"
    INDEX 01 01:19:36
  TRACK 60 AUDIO
    TITLE "4:cjc115_1809"
    INDEX 01 01:19:44
  TRACK 61 AUDIO
    TITLE "0:"
    INDEX 01 01:23:50
  TRACK 62 AUDIO
    TITLE "2:cjc115_1810"
    INDEX 01 01:24:61
  TRACK 63 AUDIO
    TITLE "0:"
    INDEX 01 01:26:13
  TRACK 64 AUDIO
    TITLE "3:cjc115_1811"
    INDEX 01 01:26:23
  TRACK 65 AUDIO
    TITLE "0:"
    INDEX 01 01:28:08
  TRACK 66 AUDIO
    TITLE "4:cjc115_1812"
    INDEX 01 01:28:18
  TRACK 67 AUDIO
    TITLE "0:"
    INDEX 01 01:32:06
  TRACK 68 AUDIO
    TITLE "2:cjc115_1813"
    INDEX 01 01:33:17
  TRACK 69 AUDIO
    TITLE "0:"
    INDEX 01 01:34:28
  TRACK 70 AUDIO
    TITLE "3:cjc115_1814"
    INDEX 01 01:34:38
  TRACK 71 AUDIO
    TITLE "0:"
    INDEX 01 01:37:30
  TRACK 72 AUDIO
    TITLE "4:cjc115_1815"
    INDEX 01 01:37:36
  TRACK 73 AUDIO
    TITLE "0:"
    INDEX 01 01:41:03
